HIERARCHY
ROOT hip
{
  OFFSET -174.847 83.8507 4.35967
  CHANNELS 6 Xposition Yposition Zposition Zrotation Xrotation Yrotation
  JOINT abdomen
  {
    OFFSET 0 20.6881 -0.73152
    CHANNELS 3 Zrotation Xrotation Yrotation
    JOINT chest
    {
      OFFSET 0 11.7043 -0.48768
      CHANNELS 3 Zrotation Xrotation Yrotation
      JOINT neck
      {
        OFFSET 0 22.1894 -2.19456
        CHANNELS 3 Zrotation Xrotation Yrotation
        JOINT head
        {
          OFFSET -0.24384 7.07133 1.2192
          CHANNELS 3 Zrotation Xrotation Yrotation
          JOINT leftEye
          {
            OFFSET 4.14528 8.04674 8.04672
            CHANNELS 3 Zrotation Xrotation Yrotation
            End Site
            {
              OFFSET 1 0 0
            }
          }
          JOINT rightEye
          {
            OFFSET -3.6576 8.04674 8.04672
            CHANNELS 3 Zrotation Xrotation Yrotation
            End Site
            {
              OFFSET 1 0 0
            }
          }
        }
      }
      JOINT rCollar
      {
        OFFSET -2.68224 19.2634 -4.8768
        CHANNELS 3 Zrotation Xrotation Yrotation
        JOINT rShldr
        {
          OFFSET -8.77824 -1.95073 1.46304
          CHANNELS 3 Zrotation Xrotation Yrotation
          JOINT rForeArm
          {
            OFFSET -28.1742 -1.7115 0.48768
            CHANNELS 3 Zrotation Xrotation Yrotation
            JOINT rHand
            {
              OFFSET -22.5879 0.773209 7.07136
              CHANNELS 3 Zrotation Xrotation Yrotation
              JOINT rThumb1
              {
                OFFSET -1.2192 -0.487915 3.41376
                CHANNELS 3 Zrotation Xrotation Yrotation
                JOINT rThumb2
                {
                  OFFSET -3.37035 -0.52449 3.41376
                  CHANNELS 3 Zrotation Xrotation Yrotation
                  End Site
                  {
                    OFFSET -1.78271 -1.18214 1.43049
                  }
                }
              }
              JOINT rIndex1
              {
                OFFSET -7.75947 0.938293 5.60832
                CHANNELS 3 Zrotation Xrotation Yrotation
                JOINT rIndex2
                {
                  OFFSET -2.54057 -0.884171 1.56538
                  CHANNELS 3 Zrotation Xrotation Yrotation
                  End Site
                  {
                    OFFSET -1.62519 -0.234802 1.16502
                  }
                }
              }
              JOINT rMid1
              {
                OFFSET -8.24714 1.18213 3.41376
                CHANNELS 3 Zrotation Xrotation Yrotation
                JOINT rMid2
                {
                  OFFSET -3.10165 -0.590103 1.0647
                  CHANNELS 3 Zrotation Xrotation Yrotation
                  End Site
                  {
                    OFFSET -2.48547 -0.328903 0.83742
                  }
                }
              }
              JOINT rRing1
              {
                OFFSET -8.82822 0.546677 1.51678
                CHANNELS 3 Zrotation Xrotation Yrotation
                JOINT rRing2
                {
                  OFFSET -2.60934 -0.819778 -0.0198488
                  CHANNELS 3 Zrotation Xrotation Yrotation
                  End Site
                  {
                    OFFSET -2.33842 -0.294052 0.168128
                  }
                }
              }
              JOINT rPinky1
              {
                OFFSET -8.27202 -0.0477905 -0.4584
                CHANNELS 3 Zrotation Xrotation Yrotation
                JOINT rPinky2
                {
                  OFFSET -1.82734 -0.647385 -0.700984
                  CHANNELS 3 Zrotation Xrotation Yrotation
                  End Site
                  {
                    OFFSET -1.69225 -0.51767 -0.607171
                  }
                }
              }
            }
          }
        }
      }
      JOINT lCollar
      {
        OFFSET 2.68224 19.2634 -4.8768
        CHANNELS 3 Zrotation Xrotation Yrotation
        JOINT lShldr
        {
          OFFSET 8.77824 -1.95073 1.46304
          CHANNELS 3 Zrotation Xrotation Yrotation
          JOINT lForeArm
          {
            OFFSET 28.1742 -1.7115 0.48768
            CHANNELS 3 Zrotation Xrotation Yrotation
            JOINT lHand
            {
              OFFSET 22.5879 0.773209 7.07136
              CHANNELS 3 Zrotation Xrotation Yrotation
              JOINT lThumb1
              {
                OFFSET 1.2192 -0.487915 3.41376
                CHANNELS 3 Zrotation Xrotation Yrotation
                JOINT lThumb2
                {
                  OFFSET 3.37035 -0.52449 3.41376
                  CHANNELS 3 Zrotation Xrotation Yrotation
                  End Site
                  {
                    OFFSET 1.78271 -1.18214 1.43049
                  }
                }
              }
              JOINT lIndex1
              {
                OFFSET 7.75947 0.938293 5.60832
                CHANNELS 3 Zrotation Xrotation Yrotation
                JOINT lIndex2
                {
                  OFFSET 2.54057 -0.884171 1.56538
                  CHANNELS 3 Zrotation Xrotation Yrotation
                  End Site
                  {
                    OFFSET 1.62519 -0.234802 1.16502
                  }
                }
              }
              JOINT lMid1
              {
                OFFSET 8.24714 1.18213 3.41376
                CHANNELS 3 Zrotation Xrotation Yrotation
                JOINT lMid2
                {
                  OFFSET 3.10165 -0.590103 1.0647
                  CHANNELS 3 Zrotation Xrotation Yrotation
                  End Site
                  {
                    OFFSET 2.48547 -0.328903 0.83742
                  }
                }
              }
              JOINT lRing1
              {
                OFFSET 8.82822 0.546677 1.51678
                CHANNELS 3 Zrotation Xrotation Yrotation
                JOINT lRing2
                {
                  OFFSET 2.60934 -0.819778 -0.0198488
                  CHANNELS 3 Zrotation Xrotation Yrotation
                  End Site
                  {
                    OFFSET 2.33842 -0.294052 0.168128
                  }
                }
              }
              JOINT lPinky1
              {
                OFFSET 8.27202 -0.0477905 -0.4584
                CHANNELS 3 Zrotation Xrotation Yrotation
                JOINT lPinky2
                {
                  OFFSET 1.82734 -0.647385 -0.700984
                  CHANNELS 3 Zrotation Xrotation Yrotation
                  End Site
                  {
                    OFFSET 1.69225 -0.51767 -0.607171
                  }
                }
              }
            }
          }
        }
      }
    }
  }
  JOINT rButtock
  {
    OFFSET -8.77824 4.35084 1.2192
    CHANNELS 3 Zrotation Xrotation Yrotation
    JOINT rThigh
    {
      OFFSET 0 -1.70687 -2.19456
      CHANNELS 3 Zrotation Xrotation Yrotation
      JOINT rShin
      {
        OFFSET 0 -36.8199 0.73152
        CHANNELS 3 Zrotation Xrotation Yrotation
        JOINT rFoot
        {
          OFFSET 0.73152 -45.1104 -5.12064
          CHANNELS 3 Zrotation Xrotation Yrotation
          End Site
          {
            OFFSET -1.1221 -3.69964 12.103
          }
        }
      }
    }
  }
  JOINT lButtock
  {
    OFFSET 8.77824 4.35084 1.2192
    CHANNELS 3 Zrotation Xrotation Yrotation
    JOINT lThigh
    {
      OFFSET 0 -1.70687 -2.19456
      CHANNELS 3 Zrotation Xrotation Yrotation
      JOINT lShin
      {
        OFFSET 0 -36.8199 0.73152
        CHANNELS 3 Zrotation Xrotation Yrotation
        JOINT lFoot
        {
          OFFSET -0.73152 -45.1104 -5.12064
          CHANNELS 3 Zrotation Xrotation Yrotation
          End Site
          {
            OFFSET 1.1221 -3.69964 12.103
          }
        }
      }
    }
  }
}
MOTION
Frames:	5
Frame Time:	0.00833333
-170.925 85.2982 8.179 -0.748218 0.000154509 0.0136293 0.984356 -0.00436093 0.0272514 0.271545 -0.00455346 0.0470446 -5.40753e-014 -7.95139e-016 2.11209e-016 -1.62022e-013 3.18055e-015 6.21202e-016 -0 0 0 -0 0 0 -2.70366e-014 5.78494e-017 3.47873e-016 -5.65948e-013 5.5287e-016 7.95139e-016 -9.78373e-012 2.96448e-012 1.20861e-013 -1.11973e-010 -2.71992e-012 2.03556e-013 -2.64123e-010 5.39279e-013 7.63333e-013 -4.56132e-010 9.31903e-013 1.32311e-012 -2.64116e-010 5.4308e-013 7.53791e-013 7.73091 5.47488 0.417314 -2.64122e-010 5.40197e-013 7.63333e-013 2.90554 0.965183 0.102902 -2.64109e-010 5.39999e-013 7.65719e-013 10.2786 0.731801 0.0259123 -2.64123e-010 5.38706e-013 7.76055e-013 2.22167 -0.733487 -0.20892 -2.70346e-014 5.78494e-017 -9.93923e-017 -5.70639e-013 8.57259e-016 -5.96354e-016 -9.78483e-012 -2.88854e-012 1.33583e-013 -1.11964e-010 3.13739e-012 2.22639e-013 -2.64107e-010 5.47259e-013 7.69694e-013 -4.56099e-010 9.50986e-013 1.34219e-012 -2.64114e-010 5.49838e-013 7.72875e-013 -7.73091 5.47488 -0.417314 -2.64108e-010 5.47652e-013 7.69694e-013 -2.90554 0.965183 -0.102902 -2.64116e-010 5.48049e-013 7.68899e-013 -10.2786 0.731801 -0.0259123 -2.641e-010 5.48248e-013 7.60153e-013 -2.22167 -0.733487 0.20892 -2.03217e-016 0 -3.88251e-019 1.24881 -5.45297 -0.109163 6.92744e-005 4.32234 0.0238806 -0.510666 1.12951 0.0812336 2.03217e-016 0 3.88251e-019 0.249662 -1.91924 0.0129233 0.00928371 -2.07855 0.0766849 0.496263 3.99654 -0.137946 
-164.73 83.8467 -1.85573 0.793983 -0.879192 -28.1723 -0.140483 -0.50272 -0.0790791 1.42613 1.63983 -0.0218069 -0.633641 -0.830024 -0.451399 1.24656 7.91953 -0.0687323 -0 0 0 -0 0 0 -2.16381e-014 -3.33764e-014 -3.70904e-014 20.6288 3.93474 2.29546 -2.72746 -1.04185 4.45047 0.000340018 0.409107 0.0574909 -2.14544e-010 -6.03786e-011 4.71902e-010 -3.69737e-010 -1.04288e-010 8.15511e-010 -2.14538e-010 -6.03755e-011 4.71892e-010 7.73091 5.47488 0.417314 -2.14545e-010 -6.03788e-011 4.71906e-010 2.90554 0.965183 0.102902 -2.14533e-010 -6.03789e-011 4.71905e-010 10.2786 0.731801 0.0259123 -2.14546e-010 -6.03789e-011 4.71913e-010 2.22167 -0.733487 -0.20892 -2.16487e-014 -3.33772e-014 -3.74585e-014 -23.4215 4.92259 -2.13087 2.80986 -1.08441 -4.57592 -0.00244706 1.38737 -0.194839 6.04096e-011 1.25659e-010 -3.1529e-010 1.02846e-010 2.17514e-010 -5.45777e-010 6.04048e-011 1.25661e-010 -3.15286e-010 -7.73091 5.47488 -0.417314 6.04094e-011 1.2566e-010 -3.1529e-010 -2.90554 0.965183 -0.102902 6.04003e-011 1.2566e-010 -3.15292e-010 -10.2786 0.731801 -0.0259123 6.04157e-011 1.25661e-010 -3.15303e-010 -2.22167 -0.733487 0.20892 -2.03217e-016 0 -3.88251e-019 -1.33057 -7.48344 -0.148117 0.0138528 10.041 0.113691 -0.452067 -3.33749 -0.381595 2.03217e-016 0 3.88251e-019 1.52171 -4.54107 0.73672 -0.0156496 6.12809 -0.0820042 0.736789 -1.04798 2.75394 
-164.742 83.855 -2.14635 1.65583 -1.09286 -57.9951 -1.32501 -1.0321 -0.179322 2.65494 3.39225 -0.0919062 -1.3238 -1.71487 -0.934356 2.58587 16.2827 -0.155421 -0 0 0 -0 0 0 -1.58908e-014 -6.79947e-014 -7.61221e-014 42.0874 8.07937 4.77169 -5.43033 -2.11951 9.15177 -0.000193863 0.842541 0.11841 -1.72657e-010 -1.35018e-010 9.78069e-010 -2.9658e-010 -2.33243e-010 1.69026e-009 -1.72653e-010 -1.35016e-010 9.7806e-010 7.73091 5.47488 0.417314 -1.7266e-010 -1.35019e-010 9.78078e-010 2.90554 0.965183 0.102902 -1.72647e-010 -1.35019e-010 9.78072e-010 10.2786 0.731801 0.0259123 -1.7266e-010 -1.35018e-010 9.78079e-010 2.22167 -0.733487 -0.20892 -1.59158e-014 -6.79965e-014 -7.64079e-014 -47.7851 9.99001 -4.46591 5.57579 -2.19811 -9.39166 0.00637796 2.95183 -0.41499 3.93947e-010 2.73884e-010 -6.50519e-010 6.77164e-010 4.74097e-010 -1.12612e-009 3.93944e-010 2.73886e-010 -6.50513e-010 -7.73091 5.47488 -0.417314 3.93948e-010 2.73885e-010 -6.5052e-010 -2.90554 0.965183 -0.102902 3.93938e-010 2.73886e-010 -6.50523e-010 -10.2786 0.731801 -0.0259123 3.93952e-010 2.73887e-010 -6.50535e-010 -2.22167 -0.733487 0.20892 -2.03217e-016 0 -3.88251e-019 -4.05444 -9.63782 -0.223237 0.00804516 16.1064 0.213884 -0.464776 -8.07557 -0.855328 2.03217e-016 0 3.88251e-019 2.96705 -7.33238 1.5315 0.00892678 14.8319 -0.256894 1.53282 -6.32416 5.79189 
-164.746 83.8262 -2.42948 2.31222 -0.284935 -84.5408 -2.39571 -1.49942 -0.291831 3.74718 4.92857 -0.160075 -1.94019 -2.48945 -1.35533 3.80118 23.7585 -0.223141 -0 0 0 -0 0 0 -1.08412e-014 -1.00245e-013 -1.11967e-013 60.9258 11.7276 7.01734 -7.70113 -3.05021 13.3685 -0.00144342 1.22732 0.172508 -1.15386e-010 -1.82214e-010 1.41418e-009 -1.96949e-010 -3.14727e-010 2.44389e-009 -1.15384e-010 -1.82213e-010 1.41417e-009 7.73091 5.47488 0.417314 -1.15391e-010 -1.82217e-010 1.41419e-009 2.90554 0.965183 0.102902 -1.15379e-010 -1.82217e-010 1.41418e-009 10.2786 0.731801 0.0259123 -1.15392e-010 -1.82214e-010 1.41419e-009 2.22167 -0.733487 -0.20892 -1.08767e-014 -1.00247e-013 -1.12177e-013 -69.1372 14.6847 -6.58501 7.9148 -3.17032 -13.7468 0.0210293 4.16192 -0.585892 7.09444e-010 3.75882e-010 -9.47411e-010 1.22074e-009 6.50641e-010 -1.64002e-009 7.09442e-010 3.75884e-010 -9.47403e-010 -7.73091 5.47488 -0.417314 7.09445e-010 3.75883e-010 -9.47411e-010 -2.90554 0.965183 -0.102902 7.09434e-010 3.75885e-010 -9.47415e-010 -10.2786 0.731801 -0.0259123 7.09448e-010 3.75885e-010 -9.47429e-010 -2.22167 -0.733487 0.20892 -2.03217e-016 0 -3.88251e-019 -6.49782 -11.5443 -0.227837 -0.0161208 21.4781 0.309733 -0.55532 -12.2685 -1.33579 2.03217e-016 0 3.88251e-019 4.26711 -9.77871 2.20951 0.078925 22.5408 -0.430785 2.76008 -11.0157 8.69712 
-164.779 83.7751 -2.75023 3.04933 0.804157 -102.927 -3.17891 -1.81163 -0.434942 4.49015 5.92463 -0.222888 -2.34311 -2.98901 -1.6202 4.6474 29.016 -0.221967 -0 0 0 -0 0 0 -7.53586e-015 -1.26575e-013 -1.39845e-013 73.9085 14.2102 8.55921 -9.22602 -3.68412 16.3578 -0.00272526 1.49045 0.209517 -1.9659e-011 -1.60802e-010 1.67515e-009 -3.11341e-011 -2.77535e-010 2.89473e-009 -1.96574e-011 -1.60802e-010 1.67514e-009 7.73091 5.47488 0.417314 -1.96642e-011 -1.60805e-010 1.67516e-009 2.90554 0.965183 0.102902 -1.96531e-011 -1.60805e-010 1.67515e-009 10.2786 0.731801 0.0259123 -1.96658e-011 -1.60802e-010 1.67515e-009 2.22167 -0.733487 -0.20892 -7.57226e-015 -1.26578e-013 -1.39994e-013 -83.7471 18.5273 -7.99662 9.53545 -3.86376 -16.9331 0.0247489 4.48632 -0.631816 9.79837e-010 3.6231e-010 -1.14846e-009 1.68745e-009 6.27091e-010 -1.98777e-009 9.79835e-010 3.62312e-010 -1.14845e-009 -7.73091 5.47488 -0.417314 9.79838e-010 3.62312e-010 -1.14846e-009 -2.90554 0.965183 -0.102902 9.79827e-010 3.62313e-010 -1.14846e-009 -10.2786 0.731801 -0.0259123 9.7984e-010 3.62314e-010 -1.14848e-009 -2.22167 -0.733487 0.20892 -2.03217e-016 0 -3.88251e-019 -8.22243 -12.8312 -0.0524556 -0.0435444 25.1162 0.379865 -0.699393 -15.1007 -1.80748 2.03217e-016 0 3.88251e-019 5.04879 -11.3689 2.57088 0.157494 27.7634 -0.569879 4.03266 -14.3555 11.1061 
